<svg version="1" xmlns="http://www.w3.org/2000/svg" width="170.667" height="170.667" viewBox="0 0 128.000000 128.000000"><path d="M56.4 2.1C54.7 4 54.5 6.4 54 29.9c-.5 24.8-.6 25.6-2.5 25.6-2.1 0-2.2-1.4-2.5-37.3 0-2.8-.6-4.8-2-6.2-2.7-2.7-8.1-2.6-10.6.1-1.8 2-1.9 4.1-2 33-.1 17-.3 31.1-.6 31.4-.2.3-2.5-2.3-5-5.8-5.5-7.5-7.4-9.2-11.1-10.1-5.6-1.3-11 4.1-10 10.2.4 3.1 25.9 41.7 30.4 46.1 3.9 3.8 13.2 8.5 19.9 10 7.5 1.7 23.7.8 30-1.7 8.9-3.6 15.2-10.2 18.5-19.7 1.6-4.4 1.8-9.6 1.9-41.5.1-20.1 0-37.5-.2-38.8-1-5.1-8.7-7.1-12.5-3.3-2.1 2-2.2 3.2-2.3 19.9-.1 9.7-.2 18-.3 18.4-.2 1.3-4.1.9-4.2-.5V9.8l-2.4-2.4c-4.7-4.7-12.4-1.7-12.6 4.9 0 1.8-.1 11.8-.1 22.3S73.4 54.3 73 55c-.4.7-1.5 1-2.4.7-1.4-.6-1.6-3.6-1.6-25.7V4.9l-2.5-2.4c-3-3.1-7.5-3.3-10.1-.4z"/></svg>